<?xml version="1.0" standalone="no"?>
<!DOCTYPE svg PUBLIC "-//W3C//DTD SVG 20010904//EN"
 "http://www.w3.org/TR/2001/REC-SVG-20010904/DTD/svg10.dtd">
<svg version="1.0" xmlns="http://www.w3.org/2000/svg"
 width="260.000000pt" height="260.000000pt" viewBox="0 0 260.000000 260.000000"
 preserveAspectRatio="xMidYMid meet">
<metadata>
Created by potrace 1.14, written by Peter Selinger 2001-2017
</metadata>
<g transform="translate(0.000000,260.000000) scale(0.100000,-0.100000)"
fill="#000000" stroke="none">
<path d="M0 1300 l0 -1300 1300 0 1300 0 0 1300 0 1300 -1300 0 -1300 0 0
-1300z m696 565 c9 -68 228 -912 240 -924 2 -2 7 -2 10 1 3 3 54 161 113 349
l107 344 -43 145 c-23 80 -43 151 -43 158 0 10 31 12 137 10 l137 -3 16 -95
c19 -116 242 -911 254 -907 13 4 264 820 282 919 l17 88 127 0 128 0 -132
-402 c-73 -222 -168 -512 -212 -645 l-79 -243 -145 0 -145 0 -95 305 c-52 168
-99 304 -104 302 -6 -2 -53 -139 -105 -305 l-95 -302 -146 0 -145 0 -173 623
c-95 342 -176 632 -179 645 l-5 23 133 -3 134 -3 11 -80z"/>
</g>
</svg>
