<svg xmlns="http://www.w3.org/2000/svg" viewBox="0 0 27.86 22.64"><defs><style>.a5229c2f-2217-4a47-9d31-af1aa86da602{fill:#a53746;}</style></defs><g id="abaa23c7-25a9-418b-9836-08dbc9ac269b" data-name="Layer 2"><g id="f3cf86bf-9cd0-45bf-8b15-91218a97baf0" data-name="Artwork"><path class="a5229c2f-2217-4a47-9d31-af1aa86da602" d="M27.86,2.68a11.72,11.72,0,0,1-3.28.9A5.76,5.76,0,0,0,27.09.42,11.47,11.47,0,0,1,23.46,1.8a5.72,5.72,0,0,0-9.81,2.92A5.9,5.9,0,0,0,13.72,7a16.26,16.26,0,0,1-11.78-6A5.73,5.73,0,0,0,3.71,8.68,5.67,5.67,0,0,1,1.12,8h0A5.72,5.72,0,0,0,5.7,13.64a5.71,5.71,0,0,1-1.5.2,6.38,6.38,0,0,1-1.08-.1,5.73,5.73,0,0,0,5.34,4,11.47,11.47,0,0,1-7.1,2.44A12.26,12.26,0,0,1,0,20.07a16.18,16.18,0,0,0,8.76,2.57C19.27,22.64,25,13.93,25,6.38c0-.25,0-.5,0-.74A11.8,11.8,0,0,0,27.86,2.68Z"/></g></g></svg>