<svg xmlns="http://www.w3.org/2000/svg" viewBox="0 0 18.72 23.97"><defs><style>.f64c5b7b-9d61-4cce-9960-40c50102d3f1{fill:#a53746;}</style></defs><g id="ac479221-3a0c-4489-85a3-3e42a7714f55" data-name="Layer 2"><g id="f779ec01-a4d2-4cb8-9c74-a9ec5444464b" data-name="Artwork"><path class="f64c5b7b-9d61-4cce-9960-40c50102d3f1" d="M5,23.22a16,16,0,0,0,1.82-3.84l.92-3.48a3.9,3.9,0,0,0,3.35,1.68c4.42,0,7.61-4.06,7.61-9.12,0-4.84-3.95-8.46-9-8.46C3.36,0,0,4.25,0,8.87,0,11,1.14,13.7,3,14.55c.27.13.42.07.49-.2s.29-1.2.4-1.66a.42.42,0,0,0-.1-.42A5.77,5.77,0,0,1,2.68,8.92,6.35,6.35,0,0,1,9.3,2.56a5.79,5.79,0,0,1,6.12,6c0,4-2,6.71-4.61,6.71a2.13,2.13,0,0,1-2.17-2.65C9.06,10.85,9.86,9,9.86,7.71A1.84,1.84,0,0,0,8,5.65c-1.47,0-2.65,1.52-2.65,3.55a5.3,5.3,0,0,0,.44,2.18L4.07,18.67A13.79,13.79,0,0,0,4,22.87L4.2,24Z"/></g></g></svg>