<svg xmlns="http://www.w3.org/2000/svg" viewBox="0 0 21.47 21.47"><defs><style>.b8f7ac9b-8921-4701-9041-0c34b2025831{fill:#a53746;}</style></defs><g id="bc0e187c-495a-4b42-ab44-641db328c1e0" data-name="Layer 2"><g id="e6632a7b-0e36-44e3-8837-9401c8a57623" data-name="Artwork"><path class="b8f7ac9b-8921-4701-9041-0c34b2025831" d="M10.73,1.93c2.87,0,3.21,0,4.34.07a5.71,5.71,0,0,1,2,.37,3.24,3.24,0,0,1,1.23.8,3.24,3.24,0,0,1,.8,1.23,6,6,0,0,1,.37,2c.05,1.13.07,1.47.07,4.33s0,3.21-.07,4.34a6,6,0,0,1-.37,2,3.54,3.54,0,0,1-2,2,6,6,0,0,1-2,.37c-1.13.05-1.47.07-4.34.07s-3.2,0-4.33-.07a6,6,0,0,1-2-.37,3.24,3.24,0,0,1-1.23-.8,3.24,3.24,0,0,1-.8-1.23,5.71,5.71,0,0,1-.37-2c-.05-1.13-.07-1.47-.07-4.34S2,7.53,2,6.4a5.71,5.71,0,0,1,.37-2,3.24,3.24,0,0,1,.8-1.23,3.24,3.24,0,0,1,1.23-.8A5.71,5.71,0,0,1,6.4,2c1.13-.05,1.47-.07,4.33-.07m0-1.93C7.82,0,7.45,0,6.31.06A8.32,8.32,0,0,0,3.7.56,5.52,5.52,0,0,0,.56,3.7a8.32,8.32,0,0,0-.5,2.61C0,7.45,0,7.82,0,10.73S0,14,.06,15.16a8.32,8.32,0,0,0,.5,2.61,5.37,5.37,0,0,0,1.24,1.9,5.51,5.51,0,0,0,1.9,1.24,8.07,8.07,0,0,0,2.61.49c1.14.06,1.51.07,4.42.07s3.29,0,4.43-.07a8.07,8.07,0,0,0,2.61-.49,5.52,5.52,0,0,0,3.14-3.14,8.07,8.07,0,0,0,.49-2.61c.06-1.14.07-1.51.07-4.43s0-3.28-.07-4.42a8.07,8.07,0,0,0-.49-2.61,5.51,5.51,0,0,0-1.24-1.9A5.37,5.37,0,0,0,17.77.56a8.32,8.32,0,0,0-2.61-.5C14,0,13.65,0,10.73,0Z"/><path class="b8f7ac9b-8921-4701-9041-0c34b2025831" d="M10.73,5.22a5.52,5.52,0,1,0,5.52,5.51A5.51,5.51,0,0,0,10.73,5.22Zm0,9.09a3.58,3.58,0,1,1,3.58-3.58A3.57,3.57,0,0,1,10.73,14.31Z"/><circle class="b8f7ac9b-8921-4701-9041-0c34b2025831" cx="16.46" cy="5" r="1.29"/></g></g></svg>