<svg xmlns="http://www.w3.org/2000/svg" viewBox="0 0 28 19.64"><defs><style>.b131f143-097b-4a22-bef8-0339595b6627{fill:#a53746;}</style></defs><g id="b7e15329-f4ec-4264-9359-976ed86947f9" data-name="Layer 2"><g id="bd4036c5-faa8-4556-acdf-9287e6565e65" data-name="Artwork"><g id="f6eddac7-cae6-4081-bc4b-31b09a30546c" data-name="Lozenge"><path class="b131f143-097b-4a22-bef8-0339595b6627" d="M27.72,4.24a6,6,0,0,0-1.11-2.77A4,4,0,0,0,23.8.28C19.88,0,14,0,14,0h0S8.12,0,4.2.28A4,4,0,0,0,1.39,1.47,6,6,0,0,0,.28,4.24,42.13,42.13,0,0,0,0,8.76v2.12a41.82,41.82,0,0,0,.28,4.51,6,6,0,0,0,1.11,2.78,4.8,4.8,0,0,0,3.09,1.19c2.24.21,9.52.28,9.52.28s5.88,0,9.8-.29a4.05,4.05,0,0,0,2.81-1.18,6,6,0,0,0,1.11-2.78A41.82,41.82,0,0,0,28,10.88V8.76A42.13,42.13,0,0,0,27.72,4.24ZM12,13.84V6l7.54,3.94Z"/></g></g></g></svg>