<svg aria-hidden="true" style="position: absolute; width: 0; height: 0; overflow: hidden;" version="1.1" xmlns="http://www.w3.org/2000/svg" xmlns:xlink="http://www.w3.org/1999/xlink">
<defs>
    <symbol id="icon-full-arrow-down" viewBox="0 0 32 32">
        <path d="M14.667 29.177l-8.313-10.036-1.020 0.859 10.028 12 9.972-12-1.019-0.86-8.315 10.039v-29.179h-1.333v29.177z"></path>
    </symbol>
    <symbol id="icon-down" viewBox="0 0 32 32">
        <path d="M30.993 5.333l-14.993 19.165-14.959-19.165-1.041 0.825 16 20.508 16-20.521-1.007-0.812z"></path>
    </symbol>
    <symbol id="icon-search" viewBox="0 0 32 32">
        <path d="M21.137 22.080l9.92 9.92 0.943-0.943-9.92-9.92c2.023-2.244 3.253-5.215 3.253-8.471 0-6.991-5.676-12.667-12.667-12.667s-12.667 5.676-12.667 12.667c0 6.991 5.676 12.667 12.667 12.667 3.256 0 6.227-1.231 8.471-3.253zM12.667 1.333c6.255 0 11.333 5.079 11.333 11.333s-5.079 11.333-11.333 11.333-11.333-5.079-11.333-11.333 5.079-11.333 11.333-11.333z"></path>
    </symbol>
    <symbol id="icon-close" viewBox="0 0 32 32">
        <path d="M4.94 4.020l-0.92 0.92 11.060 11.060-11.060 11.060 0.92 0.92 11.060-11.060 11.060 11.060 0.92-0.92-11.060-11.060 11.060-11.060-0.92-0.92-11.060 11.060z"></path>
    </symbol>
    <symbol id="icon-done" viewBox="0 0 32 32">
        <path d="M27.44 5.52c-0.020 0.005-0.040 0.013-0.060 0.020-0.168 0.043-0.313 0.15-0.4 0.3l-13.080 20.28-9-8.12c-0.157-0.2-0.42-0.288-0.668-0.223s-0.43 0.273-0.468 0.525c-0.038 0.253 0.078 0.503 0.295 0.637l9.54 8.64c0.14 0.122 0.328 0.177 0.512 0.15s0.348-0.133 0.447-0.29l13.5-20.92c0.148-0.21 0.155-0.487 0.020-0.705s-0.387-0.332-0.64-0.295z"></path>
    </symbol>
    <symbol id="icon-plus" viewBox="0 0 32 32">
        <path d="M32 14.945h-14.945v-14.945h-2.11v14.945h-14.945v2.11h14.945v14.945h2.11v-14.945h14.945z"></path>
    </symbol>
    <symbol id="icon-send" viewBox="0 0 32 32">
        <path d="M31.754 1.322c0-0.019 0-0.038 0-0.057-0.001-0.047-0.006-0.093-0.013-0.139-0.002-0.014-0.003-0.028-0.006-0.043-0.012-0.058-0.029-0.114-0.050-0.169-0.006-0.016-0.014-0.031-0.021-0.047-0.019-0.042-0.040-0.082-0.064-0.121-0.010-0.016-0.020-0.032-0.030-0.048-0.036-0.051-0.074-0.101-0.119-0.146s-0.096-0.084-0.147-0.12c-0.015-0.010-0.030-0.020-0.045-0.029-0.041-0.026-0.084-0.048-0.127-0.067-0.014-0.006-0.027-0.013-0.041-0.019-0.056-0.022-0.114-0.040-0.174-0.051-0.011-0.002-0.022-0.003-0.033-0.005-0.050-0.008-0.1-0.013-0.15-0.014-0.017-0-0.033-0-0.050 0-0.049 0.001-0.099 0.006-0.148 0.014-0.012 0.002-0.024 0.003-0.036 0.005-0.054 0.011-0.107 0.026-0.16 0.045l-29.411 11.036c-0.393 0.148-0.661 0.516-0.68 0.936s0.214 0.811 0.593 0.994l12.063 5.821 5.821 12.063c0.176 0.364 0.545 0.594 0.946 0.594 0.016 0 0.032-0 0.048-0.001 0.42-0.019 0.788-0.287 0.936-0.68l11.037-29.41c0.020-0.052 0.034-0.105 0.045-0.159 0.003-0.014 0.004-0.028 0.006-0.043 0.008-0.046 0.012-0.093 0.014-0.139zM26.533 3.982l-13.059 13.059-9.511-4.589 22.57-8.47zM19.549 28.037l-4.589-9.51 13.059-13.059-8.47 22.57z"></path>
    </symbol>
    <symbol id="icon-email" viewBox="0 0 32 32">
        <path d="M28.444 5.333h-24.889c-0.982 0-1.778 0.796-1.778 1.778v0 17.778c0 0.982 0.796 1.778 1.778 1.778v0h24.889c0.982 0 1.778-0.796 1.778-1.778v0-17.778c0-0.982-0.796-1.778-1.778-1.778v0zM27.076 24.889h-22.044l6.222-6.436-1.28-1.236-6.418 6.64v-15.396l11.049 10.996c0.321 0.32 0.764 0.517 1.253 0.517s0.932-0.197 1.253-0.517l-0 0 11.333-11.271v15.556l-6.542-6.542-1.253 1.253zM4.72 7.111h22.284l-11.147 11.084z"></path>
    </symbol>
    <symbol id="icon-phone" viewBox="0 0 32 32">
        <path d="M22.111 32c-0.231 0-0.464-0.022-0.696-0.068-0.006-0.001-0.013-0.002-0.019-0.003-0.336-0.058-8.295-1.483-14.279-7.467-4.824-4.824-6.451-11.016-6.931-13.492-0.089-0.295-0.141-0.602-0.153-0.914-0.004-0.035-0.005-0.069-0.003-0.104-0.009-0.973 0.363-1.884 1.050-2.571l2.034-2.034c0.119-0.119 0.281-0.186 0.449-0.186s0.33 0.067 0.449 0.186l6.583 6.583c0.248 0.248 0.248 0.65 0 0.898l-2.034 2.034c-0.052 0.052-0.104 0.101-0.157 0.148-0.95 0.844-1.134 2.321-0.428 3.436 0.679 1.071 1.447 2.038 2.283 2.873 0.99 0.99 2.165 1.887 3.492 2.666 1.085 0.637 2.48 0.433 3.393-0.496l0.022-0.022 2.034-2.034c0.248-0.248 0.65-0.248 0.898 0l6.583 6.583c0.248 0.248 0.248 0.65 0 0.898l-2.034 2.034c-0.681 0.681-1.593 1.052-2.536 1.052zM21.58 30.673c0.017 0.002 0.035 0.005 0.052 0.009 0.771 0.16 1.562-0.076 2.117-0.63l1.585-1.585-5.685-5.685-1.604 1.604c-1.318 1.341-3.35 1.629-4.937 0.698-1.42-0.833-2.68-1.796-3.747-2.863-0.902-0.902-1.729-1.942-2.458-3.091-1.037-1.635-0.754-3.813 0.658-5.066 0.036-0.031 0.069-0.063 0.103-0.097l1.585-1.585-5.686-5.686-1.585 1.585c-0.449 0.45-0.69 1.049-0.678 1.688 0 0.007 0.001 0.014 0.001 0.021 0.006 0.218 0.042 0.432 0.107 0.636 0.007 0.023 0.013 0.047 0.018 0.071 0.449 2.338 1.991 8.271 6.589 12.869 5.52 5.52 13.022 7.006 13.566 7.107zM31.336 17.608c-0.351 0-0.635-0.284-0.635-0.635 0-8.659-7.044-15.703-15.703-15.703-0.351 0-0.635-0.284-0.635-0.635s0.284-0.635 0.635-0.635c9.359 0 16.973 7.614 16.973 16.973 0 0.351-0.284 0.635-0.635 0.635zM27.397 17.608c-0.351 0-0.635-0.284-0.635-0.635 0-6.543-5.323-11.866-11.866-11.866-0.351 0-0.635-0.284-0.635-0.635s0.284-0.635 0.635-0.635c7.243 0 13.135 5.893 13.135 13.135 0 0.351-0.284 0.635-0.635 0.635zM23.467 17.608c-0.351 0-0.635-0.284-0.635-0.635 0-4.376-3.56-7.936-7.936-7.936-0.351 0-0.635-0.284-0.635-0.635s0.284-0.635 0.635-0.635c5.076 0 9.206 4.13 9.206 9.206 0 0.351-0.284 0.635-0.635 0.635z"></path>
    </symbol>
    <symbol id="icon-location" viewBox="0 0 32 32">
        <path d="M16.002 6.715c-2.854 0-5.167 2.313-5.167 5.167s2.313 5.167 5.167 5.167c2.854 0 5.167-2.313 5.167-5.167v0c-0.002-2.853-2.314-5.165-5.167-5.167h-0zM16.002 8.813c1.695 0 3.069 1.374 3.069 3.069s-1.374 3.069-3.069 3.069c-1.695 0-3.069-1.374-3.069-3.069v0c0.001-1.694 1.374-3.068 3.069-3.069h0z"></path>
        <path d="M16.002 0c-7.023 0.004-12.715 5.696-12.718 12.718v0c0.137 4.466 1.743 8.532 4.348 11.758l-0.029-0.037c2.214 2.877 4.802 5.326 7.723 7.324l0.115 0.074c0.159 0.103 0.354 0.163 0.562 0.163s0.403-0.061 0.567-0.166l-0.004 0.003c3.035-2.072 5.624-4.521 7.779-7.319l0.058-0.078c2.575-3.189 4.181-7.255 4.318-11.69l0.001-0.030c-0.004-7.023-5.696-12.715-12.718-12.718h-0zM16.002 2.098c5.864 0.003 10.617 4.756 10.62 10.619v0c-0.137 3.99-1.584 7.618-3.922 10.493l0.025-0.032c-1.928 2.498-4.144 4.643-6.63 6.439l-0.093 0.064c-2.579-1.86-4.795-4.006-6.668-6.431l-0.055-0.074c-2.312-2.842-3.759-6.47-3.896-10.431l-0.001-0.030c0.004-5.863 4.757-10.615 10.619-10.618h0z"></path>
    </symbol>
    <symbol id="icon-location-filled" viewBox="0 0 32 32">
        <path  d="M16 0c-6.58 0-11.933 5.355-11.933 11.938 0 9.807 10.745 19.384 11.203 19.787 0.209 0.184 0.469 0.276 0.73 0.276s0.522-0.092 0.73-0.276c0.457-0.403 11.203-9.979 11.203-19.787 0-6.583-5.353-11.938-11.933-11.938zM16 8.586c1.828 0 3.315 1.503 3.315 3.351s-1.487 3.351-3.315 3.351c-1.828 0-3.315-1.503-3.315-3.351s1.487-3.351 3.315-3.351z"></path>
    </symbol>
    <symbol id="icon-tick" viewBox="0 0 32 32">
        <path d="M28.442 9.077c-0.491 0-0.891 0.399-0.891 0.891v16.267c0 1.719-1.399 3.118-3.118 3.118h-19.534c-1.719 0-3.118-1.399-3.118-3.118v-19.534c0-1.719 1.399-3.118 3.118-3.118h19.534c0.492 0 0.891-0.399 0.891-0.891s-0.398-0.891-0.891-0.891h-19.534c-2.701 0-4.9 2.198-4.9 4.9v19.534c0 2.702 2.198 4.9 4.9 4.9h19.534c2.702 0 4.9-2.198 4.9-4.9v-16.267c-0-0.492-0.399-0.891-0.891-0.891z"></path>
        <path d="M31.739 1.127c-0.348-0.348-0.913-0.348-1.259 0l-17.9 17.899-4.474-4.474c-0.348-0.348-0.912-0.348-1.26 0s-0.348 0.912 0 1.26l5.105 5.103c0.174 0.174 0.402 0.261 0.63 0.261s0.456-0.087 0.63-0.261c0-0 0-0.001 0.001-0.001l18.528-18.528c0.348-0.348 0.348-0.912 0-1.26z"></path>
    </symbol>
</defs>
</svg>
