<?xml version="1.0" encoding="utf-8"?>
<!-- Generator: Adobe Illustrator 23.0.1, SVG Export Plug-In . SVG Version: 6.00 Build 0)  -->
<svg version="1.1" id="Layer_1" xmlns="http://www.w3.org/2000/svg" xmlns:xlink="http://www.w3.org/1999/xlink" x="0px" y="0px"
	 viewBox="0 0 179.6 55.6" style="enable-background:new 0 0 179.6 55.6;" xml:space="preserve">
<style type="text/css">
	.st0{fill:#FFFFFF;}
</style>
<g>
	<g id="Group_1125_1_" transform="translate(-836.999 22.18)">
		<g id="Group_1080_1_" transform="translate(356.316 -12.633)">
			<path id="Path_14_1_" class="st0" d="M521.4,3.2l-8.9,22.3c-1,2.6-1.4,3.2-1.8,3.2c-0.4,0-0.6-0.4-1.5-2.8l-5.9-15.2l-7.2,15.5
				c-0.8,1.7-1.3,2.5-1.6,2.5c-0.4,0-0.9-0.9-1.7-2.8l-8.7-22c-1.4-3.3-1.9-3.9-3.4-4.1v-1h11.6v1c-2.2,0.3-3,0.8-3,2.1
				c0,0.7,0.1,1.3,0.4,1.9l6.4,16.8l5.9-12.8l-1.3-3.6c-1.3-3.5-2.1-4.2-4.4-4.4v-1h13.1v1c-3,0.5-3.7,0.9-3.7,2.3
				c0,0.8,0,0.8,1.1,3.8l5.4,14.4L517.8,6c0.7-1.7,1.1-3.3,1.1-4.3c0-1.1-0.6-1.5-2.8-2v-1h7.9v1C522.7,0.2,522.5,0.5,521.4,3.2"/>
			<path id="Path_15_1_" class="st0" d="M537.5,28.4c-7.4,0-12-5.5-12-14.4c0-9.4,5.5-15.8,13.5-15.8c3.3,0,6.3,1.4,8.2,3.7
				c1.6,2.1,2.3,3.9,2.8,8.1h-19.8c0.1,4.1,0.6,6.4,1.9,8.9c1.9,3.5,4.6,5.2,8.1,5.2c4.1,0,6.9-1.9,10-6.8l1,0.5
				C548.5,24.6,543.7,28.4,537.5,28.4 M537.1,0.4c-3.9,0-6.1,2.3-6.8,7.4h13.1C542.6,2.2,541,0.4,537.1,0.4"/>
			<path id="Path_16_1_" class="st0" d="M565.2,28.4c-1.6-0.1-3.2-0.3-4.8-0.6c-1.5-0.4-2.3-0.5-3-0.5c-0.8,0-1,0.1-1.5,0.8h-0.8
				v-10h1c1.5,6.6,3.7,9,8.2,9c3.3,0,5.3-1.8,5.3-4.6c0-2-1.1-3.5-3.3-4.8l-3.7-2.1c-5.5-3.2-7.5-5.7-7.5-9.3c0-4.7,3.6-7.9,8.9-7.9
				c1.5,0,3,0.3,4.4,0.8c0.5,0.3,1.1,0.4,1.7,0.5c0.3,0,0.3-0.1,0.9-0.5l0.1-0.1h0.7l0.3,8.8h-1c-1.5-5.8-3.4-7.9-7.1-7.9
				c-3,0-5,1.7-5,4.4c0,1.7,1,3.3,2.8,4.4l7,4.1c3.9,2.3,5.4,4.4,5.4,7.7C574.2,24.6,570.1,28.4,565.2,28.4"/>
			<path id="Path_17_1_" class="st0" d="M586.1,28.4c-3.7,0-5.7-2.8-5.7-8.2V0.8H577c-0.2-0.1-0.3-0.3-0.3-0.4
				c0-0.4,0.4-0.8,1.1-1.2c1.7-1,3.9-3.3,6.2-6.9c0.5-0.6,0.9-1.2,1.3-1.8c0.3,0,0.5,0.2,0.5,0.8v7.5h6.5v2.1h-6.5v18.4
				c0,4.1,1,5.8,3.3,5.8c1.4,0,2.4-0.6,3.9-2.3l0.8,0.7C591.8,26.8,589.3,28.4,586.1,28.4"/>
			<path id="Path_18_1_" class="st0" d="M607.5,28.4c-7.4,0-12-5.5-12-14.4c0-9.4,5.5-15.8,13.5-15.8c3.3,0,6.3,1.4,8.2,3.7
				c1.6,2.1,2.3,3.9,2.8,8.1h-19.8c0.1,4.1,0.6,6.4,1.9,8.9c1.9,3.5,4.6,5.2,8.1,5.2c4.1,0,6.9-1.9,10-6.8l1,0.5
				C618.4,24.6,613.6,28.4,607.5,28.4 M607,0.4c-3.9,0-6.1,2.3-6.8,7.4h13.1C612.5,2.2,610.9,0.4,607,0.4"/>
			<path id="Path_19_1_" class="st0" d="M638,27.7v-1c2.1-0.1,2.6-0.4,2.6-1.5c0-0.4-0.1-0.8-0.4-1.2l-5.9-9l-5.1,7.9
				c-0.8,1.3-1.3,2.3-1.3,2.6c0,0.8,0.8,1.2,2.6,1.2v1h-9.3v-1c2.1-0.2,2.8-0.6,4.7-3.3l7.3-10.6l-6.1-9.3c-2-3-3-3.9-5-3.9h-0.6v-1
				H635v1c-1.9,0.1-2.8,0.5-2.8,1.4c0,0.8,1.2,3,3,5.7l0.9,1.3c0.8-1.3,1.6-2.4,1.9-2.8c1.6-2,2.4-3.4,2.4-4.2
				c0-0.9-0.6-1.3-2.6-1.4v-1H648v1c-2.1,0.1-4,1.1-5.2,2.8l-5.3,7.7l8.2,12.6c2,2.8,3.3,3.9,5.3,3.9v1H638z"/>
			<path id="Path_20_1_" class="st0" d="M657.3,28.3c-1.6,0-2.8-1.3-2.8-2.8c0-1.6,1.3-3,2.9-3c1.6,0,2.9,1.4,3,3
				C660.2,27.1,658.9,28.3,657.3,28.3"/>
		</g>
	</g>
	<g>
		<path class="st0" d="M14.1,55.6v-7h4.6v1h-3.3v1.9h3.1v1h-3.1v3.1H14.1z"/>
		<path class="st0" d="M21.8,55.6v-7h1.3v6h3.3v1.1H21.8z"/>
		<path class="st0" d="M30.3,55.2c-0.5-0.3-0.9-0.7-1.2-1.3c-0.3-0.5-0.4-1.2-0.4-1.9s0.1-1.4,0.4-1.9c0.3-0.5,0.7-1,1.2-1.3
			c0.5-0.3,1.1-0.4,1.8-0.4c0.7,0,1.3,0.1,1.8,0.4c0.5,0.3,0.9,0.7,1.2,1.3c0.3,0.5,0.4,1.2,0.4,1.9S35.3,53.4,35,54
			c-0.3,0.5-0.7,1-1.2,1.3c-0.5,0.3-1.1,0.4-1.8,0.4C31.4,55.7,30.8,55.5,30.3,55.2z M33.6,54c0.4-0.4,0.5-1.1,0.5-1.9
			c0-0.8-0.2-1.5-0.5-1.9s-0.9-0.7-1.5-0.7c-0.7,0-1.2,0.2-1.5,0.7S30,51.2,30,52.1c0,0.8,0.2,1.5,0.5,1.9c0.4,0.4,0.9,0.7,1.5,0.7
			C32.7,54.7,33.2,54.4,33.6,54z"/>
		<path class="st0" d="M40.1,55.2c-0.5-0.3-0.9-0.7-1.2-1.3c-0.3-0.5-0.4-1.2-0.4-1.9s0.1-1.4,0.4-1.9c0.3-0.5,0.7-1,1.2-1.3
			c0.5-0.3,1.1-0.4,1.8-0.4c0.7,0,1.3,0.1,1.8,0.4c0.5,0.3,0.9,0.7,1.2,1.3c0.3,0.5,0.4,1.2,0.4,1.9s-0.1,1.4-0.4,1.9
			c-0.3,0.5-0.7,1-1.2,1.3c-0.5,0.3-1.1,0.4-1.8,0.4C41.2,55.7,40.6,55.5,40.1,55.2z M43.4,54c0.4-0.4,0.5-1.1,0.5-1.9
			c0-0.8-0.2-1.5-0.5-1.9s-0.9-0.7-1.5-0.7c-0.7,0-1.2,0.2-1.5,0.7s-0.5,1.1-0.5,1.9c0,0.8,0.2,1.5,0.5,1.9c0.4,0.4,0.9,0.7,1.5,0.7
			C42.5,54.7,43,54.4,43.4,54z"/>
		<path class="st0" d="M54.4,55.6H53l-1.2-2.2c-0.1-0.2-0.3-0.4-0.4-0.5c-0.2-0.1-0.4-0.1-0.6-0.1h-1v2.8h-1.3v-7h3.1
			c0.8,0,1.4,0.2,1.8,0.5c0.4,0.4,0.6,0.9,0.6,1.5c0,0.5-0.2,1-0.5,1.3s-0.7,0.6-1.3,0.7c0.4,0.1,0.7,0.4,0.9,0.8L54.4,55.6z
			 M52.5,51.5c0.2-0.2,0.3-0.5,0.3-0.8c0-0.4-0.1-0.7-0.3-0.8c-0.2-0.2-0.6-0.3-1.1-0.3h-1.7v2.2h1.7C51.9,51.8,52.3,51.7,52.5,51.5
			z"/>
		<path class="st0" d="M57.5,55.6v-7h1.3v7H57.5z"/>
		<path class="st0" d="M67,48.5h1.2v7h-1l-3.8-4.9v4.9h-1.2v-7h1l3.8,4.9V48.5z"/>
		<path class="st0" d="M77.6,51.8v3.4c-0.3,0.2-0.7,0.3-1.2,0.4c-0.5,0.1-0.9,0.1-1.4,0.1c-0.7,0-1.4-0.1-1.9-0.4
			C72.6,55,72.2,54.5,72,54s-0.4-1.2-0.4-1.9c0-0.7,0.1-1.4,0.4-1.9c0.3-0.5,0.7-1,1.2-1.2s1.1-0.4,1.8-0.4c0.5,0,1,0.1,1.4,0.2
			s0.8,0.3,1.1,0.6L77,50.2c-0.3-0.3-0.6-0.4-1-0.5s-0.7-0.2-1-0.2c-0.7,0-1.3,0.2-1.6,0.6c-0.4,0.4-0.6,1.1-0.6,1.9
			c0,1.7,0.8,2.6,2.3,2.6c0.5,0,0.9-0.1,1.4-0.2v-1.8H75v-0.9H77.6z"/>
		<path class="st0" d="M85.8,55.6v-7h4.7v1H87v1.9h3.3v1H87v2.1h3.5v1H85.8z"/>
		<path class="st0" d="M96.9,52l2.7,3.6h-1.5L96.2,53l-1.9,2.6h-1.5l2.7-3.6l-2.6-3.5h1.5l1.8,2.5l1.8-2.5h1.5L96.9,52z"/>
		<path class="st0" d="M103.4,55.2c-0.5-0.3-0.9-0.7-1.2-1.3c-0.3-0.5-0.4-1.2-0.4-1.9s0.1-1.4,0.4-1.9c0.3-0.5,0.7-1,1.2-1.3
			c0.5-0.3,1.1-0.4,1.8-0.4c0.5,0,0.9,0.1,1.3,0.2s0.8,0.4,1.1,0.6l-0.4,0.9c-0.3-0.3-0.6-0.4-0.9-0.6c-0.3-0.1-0.6-0.2-1-0.2
			c-0.7,0-1.2,0.2-1.6,0.7c-0.4,0.4-0.6,1.1-0.6,1.9c0,0.8,0.2,1.5,0.6,1.9c0.4,0.4,0.9,0.7,1.6,0.7c0.4,0,0.7-0.1,1-0.2
			c0.3-0.1,0.6-0.3,0.9-0.6l0.4,0.9c-0.3,0.3-0.6,0.5-1.1,0.6s-0.9,0.2-1.3,0.2C104.5,55.7,103.9,55.5,103.4,55.2z"/>
		<path class="st0" d="M110.8,55.6v-7h4.7v1H112v1.9h3.3v1H112v2.1h3.5v1H110.8z"/>
		<path class="st0" d="M118.7,55.6v-7h1.3v6h3.3v1.1H118.7z"/>
		<path class="st0" d="M126.2,55.6v-7h1.3v6h3.3v1.1H126.2z"/>
		<path class="st0" d="M133.8,55.6v-7h4.7v1H135v1.9h3.3v1H135v2.1h3.5v1H133.8z"/>
		<path class="st0" d="M146.4,48.5h1.2v7h-1l-3.8-4.9v4.9h-1.2v-7h1l3.8,4.9V48.5z"/>
		<path class="st0" d="M152.5,55.2c-0.5-0.3-0.9-0.7-1.2-1.3c-0.3-0.5-0.4-1.2-0.4-1.9s0.1-1.4,0.4-1.9c0.3-0.5,0.7-1,1.2-1.3
			c0.5-0.3,1.1-0.4,1.8-0.4c0.5,0,0.9,0.1,1.3,0.2s0.8,0.4,1.1,0.6l-0.4,0.9c-0.3-0.3-0.6-0.4-0.9-0.6c-0.3-0.1-0.6-0.2-1-0.2
			c-0.7,0-1.2,0.2-1.6,0.7c-0.4,0.4-0.6,1.1-0.6,1.9c0,0.8,0.2,1.5,0.6,1.9c0.4,0.4,0.9,0.7,1.6,0.7c0.4,0,0.7-0.1,1-0.2
			c0.3-0.1,0.6-0.3,0.9-0.6l0.4,0.9c-0.3,0.3-0.6,0.5-1.1,0.6s-0.9,0.2-1.3,0.2C153.6,55.7,153,55.5,152.5,55.2z"/>
		<path class="st0" d="M159.9,55.6v-7h4.7v1h-3.5v1.9h3.3v1h-3.3v2.1h3.5v1H159.9z"/>
	</g>
</g>
</svg>
